<svg xmlns="http://www.w3.org/2000/svg" viewBox="0 0 1206.1 325.1"><path fill="#fff" d="M408 168.2c-3.7-3.3-8.5-6-14.1-8.3-5.7-2.3-12.2-4.3-19.5-6.2-6.7-1.6-12.2-3.1-16.5-4.6-4.3-1.5-7.8-3.1-10.2-4.8-2.5-1.7-4.2-3.6-5.1-5.6-.9-2-1.4-4.4-1.4-7.2 0-4.7 2-8.6 6-11.9 4-3.3 9.6-4.9 16.8-4.9 6.4 0 12.7 1.2 19 3.7 5.9 2.3 11.8 5.6 17.8 9.8.7.5 1.6.3 2.1-.4l11.5-16.2c.5-.7.3-1.6-.3-2.1-6.9-5.3-14.2-9.4-22-12.2-8.2-3-17.4-4.5-27.7-4.5-6.9 0-13.3 1-19.2 2.9-5.9 1.9-10.9 4.7-15 8.3-4.2 3.6-7.4 7.9-9.8 12.9-2.4 5-3.6 10.6-3.6 16.7 0 6.5 1 12.1 3.1 16.6 2.1 4.5 5.1 8.4 9 11.6 3.9 3.2 8.8 5.9 14.6 8 5.8 2.1 12.5 4.1 20 5.8 6.5 1.6 11.9 3.1 15.9 4.6 4.1 1.5 7.3 3 9.6 4.7 2.3 1.7 3.9 3.5 4.8 5.5s1.3 4.3 1.3 6.8c0 5.5-2.2 9.8-6.7 13-4.5 3.2-10.5 4.8-18.1 4.8-8.8 0-16.7-1.6-23.6-4.7-6.5-3-13-7.1-19.4-12.5-.6-.5-1.6-.5-2.1.2l-12.9 15.3c-.5.6-.5 1.6.2 2.1 8.1 7.1 16.9 12.4 26.3 15.9 9.9 3.7 20.2 5.5 31 5.5 7.3 0 14.1-.9 20.2-2.8s11.4-4.6 15.7-8.2c4.4-3.6 7.8-8 10.2-13.2 2.4-5.2 3.7-11.1 3.7-17.8 0-5.9-1-11-2.9-15.3-2.1-4.2-4.9-8-8.7-11.3zm116.3 36c-.6-.6-1.5-.6-2.1 0-3.6 3.4-7.3 6.2-11.2 8.5-4.3 2.5-9.4 3.7-15.1 3.7-4.7 0-8.9-.9-12.8-2.7-3.9-1.8-7.2-4.2-10-7.3-2.8-3.1-5-6.7-6.5-10.8-1.5-4.1-2.3-8.6-2.3-13.4 0-4.7.8-9 2.3-13.1 1.5-4.1 3.6-7.6 6.3-10.7 2.7-3.1 5.9-5.5 9.6-7.3 3.7-1.8 7.8-2.7 12.2-2.7 6.1 0 11.3 1.2 15.5 3.7 3.8 2.2 7.4 5 10.8 8.4.6.6 1.6.6 2.2 0l13-14c.5-.6.5-1.5 0-2.1-4.7-5-10.2-9-16.3-12.2-6.6-3.3-14.9-5-24.9-5-7.9 0-15.2 1.5-21.9 4.4-6.7 2.9-12.6 6.9-17.5 12s-8.7 10.9-11.5 17.6c-2.8 6.7-4.1 13.8-4.1 21.4 0 7.6 1.4 14.7 4.1 21.3 2.8 6.6 6.6 12.4 11.5 17.4s10.7 8.9 17.4 11.8c6.7 2.9 13.9 4.3 21.8 4.3 10.3 0 18.7-1.8 25.4-5.5 6.2-3.4 11.9-7.8 16.8-13.2.6-.6.5-1.5-.1-2.1l-12.6-12.4zm77.8-76.5c-8.7 0-16.1.8-22.2 2.4-5.7 1.5-11.3 3.4-16.7 5.8-.7.3-1.1 1.1-.8 1.9l5.6 16.6c.3.8 1.2 1.2 2 .9 4.3-1.7 8.5-3.1 12.7-4.2 4.7-1.2 10-1.8 16-1.8 8.4 0 14.8 1.9 19.3 5.8s6.7 9.5 6.7 16.8v.5c0 1-1 1.7-2 1.4-3.5-1.1-7.2-1.9-10.9-2.6-4.5-.8-9.9-1.2-16.3-1.2-6.1 0-11.8.7-17.1 2.1-5.3 1.4-9.8 3.5-13.6 6.3-3.8 2.8-6.8 6.3-8.9 10.6-2.1 4.3-3.2 9.3-3.2 15v.4c0 5.3 1 10 3.1 14.1s4.8 7.5 8.2 10.2c3.4 2.7 7.4 4.8 11.9 6.2 4.5 1.4 9.3 2.1 14.4 2.1 8 0 14.8-1.5 20.4-4.4 4.3-2.3 8.1-5 11.2-8 1-.9 2.6-.2 2.6 1.1v7.6c0 .8.7 1.5 1.5 1.5h21c.8 0 1.5-.7 1.5-1.5v-61.1c0-14.1-3.8-25.1-11.4-32.9-7.6-7.7-19.3-11.6-35-11.6zm23 69c0 3.3-.7 6.4-2.1 9.1-1.4 2.7-3.4 5.1-5.9 7-2.5 1.9-5.5 3.4-8.9 4.5-3.4 1.1-7.1 1.6-11.1 1.6-5.7 0-10.6-1.3-14.5-4-3.9-2.7-5.9-6.5-5.9-11.6v-.4c0-5.5 2.1-9.7 6.4-12.6 4.3-2.9 10.2-4.4 17.8-4.4 4.7 0 9.1.4 13.3 1.2 3.8.7 7.1 1.6 9.9 2.6.6.2 1 .8 1 1.4v5.6zM809 90.2c-2.4-.7-4.9-1.2-7.5-1.7-3.1-.5-6.7-.8-11-.8-10.4 0-18.5 2.8-24.1 8.5-5.6 5.7-8.5 14.4-8.5 26.1v6.1c0 .8-.7 1.5-1.5 1.5h-48.9c-.5-.3-.8-.7-.8-1.3v-4.3c0-10.7 4.7-16 14-16 2.7 0 5.1.2 7.3.7 1.6.3 3.3.8 5 1.3 1 .3 1.9-.4 1.9-1.5V91.7c0-.7-.4-1.3-1.1-1.5-2.4-.7-4.9-1.2-7.5-1.7-3.1-.5-6.7-.8-11-.8-10.4 0-18.5 2.8-24.1 8.5-5.6 5.7-8.5 14.4-8.5 26.1v6.1c0 .8-.7 1.5-1.5 1.5h-10.4c-.8 0-1.5.7-1.5 1.5v17.2c0 .8.7 1.5 1.5 1.5h10.4c.8 0 1.5.7 1.5 1.5v81.8c0 .8.7 1.5 1.5 1.5h21.4c.8 0 1.5-.7 1.5-1.5v-81.8c0-.8.7-1.5 1.5-1.5h47.8c.8 0 1.5.7 1.5 1.5v81.8c0 .8.7 1.5 1.5 1.5h21.4c.8 0 1.5-.7 1.5-1.5v-81.8c0-.8.7-1.5 1.5-1.5h24.6c.8 0 1.5-.7 1.5-1.5v-17c0-.8-.7-1.5-1.5-1.5h-25c-.8 0-1.5-.7-1.5-1.5v-4.3c0-10.7 4.7-16 14-16 2.7 0 5.1.2 7.3.7 1.6.3 3.3.8 5 1.3 1 .3 1.9-.4 1.9-1.5V91.7c0-.7-.5-1.3-1.1-1.5zm95.3 114c-.6-.6-1.5-.6-2.1 0-3.6 3.4-7.3 6.2-11.2 8.5-4.3 2.5-9.4 3.7-15.1 3.7-4.7 0-8.9-.9-12.8-2.7-3.9-1.8-7.2-4.2-10-7.3-2.8-3.1-5-6.7-6.5-10.8-1.5-4.1-2.3-8.6-2.3-13.4 0-4.7.8-9 2.3-13.1 1.5-4.1 3.6-7.6 6.3-10.7 2.7-3.1 5.9-5.5 9.6-7.3 3.7-1.8 7.8-2.7 12.2-2.7 6.1 0 11.3 1.2 15.5 3.7 3.8 2.2 7.4 5 10.8 8.4.6.6 1.6.6 2.2 0l13-14c.5-.6.5-1.5 0-2.1-4.7-5-10.2-9-16.3-12.2-6.6-3.3-14.9-5-24.9-5-7.9 0-15.2 1.5-21.9 4.4-6.7 2.9-12.6 6.9-17.5 12s-8.7 10.9-11.5 17.6c-2.8 6.7-4.1 13.8-4.1 21.4 0 7.6 1.4 14.7 4.1 21.3 2.8 6.6 6.6 12.4 11.5 17.4s10.7 8.9 17.4 11.8c6.7 2.9 13.9 4.3 21.8 4.3 10.3 0 18.7-1.8 25.4-5.5 6.2-3.4 11.9-7.8 16.8-13.2.6-.6.5-1.5-.1-2.1l-12.6-12.4zm77.8-76.5c-8.7 0-16.1.8-22.2 2.4-5.7 1.5-11.3 3.4-16.7 5.8-.7.3-1.1 1.1-.8 1.9l5.6 16.6c.3.8 1.2 1.2 2 .9 4.3-1.7 8.5-3.1 12.7-4.2 4.7-1.2 10-1.8 16-1.8 8.4 0 14.8 1.9 19.3 5.8s6.7 9.5 6.7 16.8v.5c0 1-1 1.7-2 1.4-3.5-1.1-7.2-1.9-10.9-2.6-4.5-.8-9.9-1.2-16.3-1.2-6.1 0-11.8.7-17.1 2.1-5.3 1.4-9.8 3.5-13.6 6.3-3.8 2.8-6.8 6.3-8.9 10.6-2.1 4.3-3.2 9.3-3.2 15v.4c0 5.3 1 10 3.1 14.1s4.8 7.5 8.2 10.2c3.4 2.7 7.4 4.8 11.9 6.2 4.5 1.4 9.3 2.1 14.4 2.1 8 0 14.8-1.5 20.4-4.4 4.3-2.3 8.1-5 11.2-8 1-.9 2.6-.2 2.6 1.1v7.6c0 .8.7 1.5 1.5 1.5h21c.8 0 1.5-.7 1.5-1.5v-61.1c0-14.1-3.8-25.1-11.4-32.9-7.6-7.7-19.3-11.6-35-11.6zm23 69c0 3.3-.7 6.4-2.1 9.1-1.4 2.7-3.4 5.1-5.9 7-2.5 1.9-5.5 3.4-8.9 4.5-3.4 1.1-7.1 1.6-11.1 1.6-5.7 0-10.6-1.3-14.5-4-3.9-2.7-5.9-6.5-5.9-11.6v-.4c0-5.5 2.1-9.7 6.4-12.6 4.3-2.9 10.2-4.4 17.8-4.4 4.7 0 9.1.4 13.3 1.2 3.8.7 7.1 1.6 9.9 2.6.6.2 1 .8 1 1.4v5.6zm76.4-107.8h-21.4c-.8 0-1.5.7-1.5 1.5v143c0 .8.7 1.5 1.5 1.5h21.4c.8 0 1.5-.7 1.5-1.5v-143c.1-.8-.6-1.5-1.5-1.5zm124.1 127.6-12.5-12.3c-.6-.6-1.5-.6-2.1 0-3.6 3.4-7.3 6.2-11.2 8.5-4.3 2.5-9.4 3.7-15.1 3.7-4.7 0-8.9-.9-12.8-2.7-3.9-1.8-7.2-4.2-10-7.3-2.8-3.1-5-6.7-6.5-10.8-1.5-4.1-2.3-8.6-2.3-13.4 0-4.7.8-9 2.3-13.1 1.5-4.1 3.6-7.6 6.3-10.7 2.7-3.1 5.9-5.5 9.6-7.3 3.7-1.8 7.8-2.7 12.2-2.7 6.1 0 11.3 1.2 15.5 3.7 3.8 2.2 7.4 5 10.8 8.4.6.6 1.6.6 2.2 0l13-14c.5-.6.5-1.5 0-2.1-4.7-5-10.2-9-16.3-12.2-6.6-3.3-14.9-5-24.9-5-7.9 0-15.2 1.5-21.9 4.4-6.7 2.9-12.6 6.9-17.5 12s-8.7 10.9-11.5 17.6c-2.8 6.7-4.1 13.8-4.1 21.4 0 7.6 1.4 14.7 4.1 21.3 2.8 6.6 6.6 12.4 11.5 17.4s10.7 8.9 17.4 11.8c6.7 2.9 13.9 4.3 21.8 4.3 10.3 0 18.7-1.8 25.4-5.5 6.2-3.4 11.9-7.8 16.8-13.2.4-.7.4-1.6-.2-2.2zM176.1 6.6c-4.2-4.2-10-6.6-16-6.6H22.6C10.1 0 0 10.1 0 22.6v279.9c0 12.5 10.1 22.6 22.6 22.6h182.9c12.5 0 22.6-10.1 22.6-22.6v-140l.2-94.3c0-6-2.4-11.8-6.6-16L176.1 6.6zM23.3 34.7l157.8 116.2H23.3V34.7zm0 267.1V185.6l157.8 116.2H23.3zm181.5-11.4L47.1 174.2h157.8v116.2zm.1-150.9L47.1 23.3H153v51.9h52l-.1 64.3z"/></svg>